<?xml version="1.0" standalone="no"?>
<!DOCTYPE svg PUBLIC "-//W3C//DTD SVG 20010904//EN"
 "http://www.w3.org/TR/2001/REC-SVG-20010904/DTD/svg10.dtd">
<svg version="1.0" xmlns="http://www.w3.org/2000/svg"
 width="1081.000000pt" height="1081.000000pt" viewBox="0 0 1081.000000 1081.000000"
 preserveAspectRatio="xMidYMid meet">
<metadata>
Created by potrace 1.14, written by Peter Selinger 2001-2017
</metadata>
<g transform="translate(0.000000,1081.000000) scale(0.100000,-0.100000)"
fill="#000000" stroke="none">
<path d="M10 7972 c-7 -3 -10 -546 -10 -1603 l0 -1599 1363 0 c749 -1 1380 -3
1402 -6 129 -17 254 -68 363 -148 34 -25 278 -261 541 -523 1110 -1107 1100
-1097 1226 -1160 69 -35 162 -63 253 -76 68 -10 470 -12 1867 -11 2577 3 2472
2 2541 20 54 14 192 77 204 93 3 3 21 18 40 33 57 41 879 868 919 923 56 76
84 150 83 218 -2 105 -53 187 -227 363 -460 466 -1361 1377 -1531 1550 -115
117 -463 469 -774 784 -311 315 -571 579 -578 586 -11 11 -57 -31 -266 -244
-325 -329 -642 -651 -667 -678 l-19 -21 266 -269 c843 -852 1845 -1863 1947
-1964 67 -67 112 -119 105 -122 -7 -2 -771 -3 -1698 -3 l-1685 1 -84 23 c-92
24 -189 70 -265 125 -27 19 -400 383 -829 808 -429 425 -805 790 -836 812
-113 78 -266 135 -416 154 -69 9 -361 12 -1415 16 l-525 1 -3 322 -2 321 44 3
c87 7 1922 3 1991 -5 284 -30 548 -138 766 -315 64 -51 195 -183 847 -850 63
-64 168 -171 235 -239 l121 -123 93 93 c51 51 261 258 466 460 l372 367 -82
78 c-75 72 -355 341 -513 493 -146 140 -548 526 -753 724 -217 207 -528 384
-837 476 -120 36 -309 76 -396 85 -33 3 -84 9 -115 13 -31 5 -629 10 -1330 11
-701 2 -1480 4 -1732 5 -251 0 -462 0 -467 -2z"/>
</g>
</svg>
